<?xml version="1.0" encoding="utf-8"?>
<!-- Generator: Adobe Illustrator 28.0.0, SVG Export Plug-In . SVG Version: 6.00 Build 0)  -->
<svg version="1.1" id="Layer_1" xmlns="http://www.w3.org/2000/svg" xmlns:xlink="http://www.w3.org/1999/xlink" x="0px" y="0px"
	 viewBox="0 0 612 408.6" style="enable-background:new 0 0 612 408.6;" xml:space="preserve">
<style type="text/css">
	.st0{fill:#1D3664;}
	.st1{fill:#203966;}
	.st2{fill:#FDFDFD;}
	.st3{fill:#223A67;}
	.st4{fill:#233B67;}
	.st5{fill:#233B68;}
	.st6{fill:#253D69;}
	.st7{fill:#243C68;}
	.st8{fill:#394F77;}
	.st9{fill:#1E3764;}
	.st10{fill:#3C5279;}
</style>
<path class="st0" d="M18,21.3c178.6,0,357.3,0,535.9,0c0.1,0.7,0.1,1.3,0.1,2c0,85.9,0,171.7,0,257.6c0,1.7-0.1,1.8-1.8,1.8
	c-91.7,0-183.4,0-275,0c-85.8,0-171.6,0-257.4,0c-2,0-2,0-2-2c0-85.9,0-171.7,0-257.6C17.9,22.4,18,21.8,18,21.3z M149.9,66.2
	c-19,0-38,0-57,0c-11.1,0-20.1,4.4-27,12.9c-3.5,4.3-5.9,9.1-5.9,14.8c0,37.5,0,75.1,0.1,112.6c0,3,0.4,6.1,1.1,9
	c1.6,6,4.9,11.1,9.4,15.3c6.2,5.8,13.5,9.1,22.2,8.9c10-0.2,20.1,0,30.1,0c25.6,0,51.2-0.1,76.8-0.1c3.1,0,6-1.9,5.9-5.9
	c-0.1-32-0.1-64-0.1-95.9c0-0.5,0-1,0-1.6c-0.2-2.3-1.7-3.8-3.7-3.8c-19.3,0-38.6,0-57.9,0c-2.3,0-3.7,1.1-4.5,3.3
	c-0.3,0.8-0.5,1.6-0.8,2.4c-1.2,4-2.5,8.1-3.7,12.1c-1.2,4-2.4,8.1-3.6,12.1c-0.7,2.3-1.3,4.5-1.9,6.8c-0.5,1.9,0.3,3.3,2.3,3.8
	c1.1,0.3,2.3,0.5,3.4,0.5c4.1,0.1,8.2,0,12.2,0c2.9,0,4.7,1.6,5,4.5c0.1,0.6,0.1,1.2,0.1,1.8c0,4.7,0,9.4,0,14c0,3.5-2,6.9-6.8,6.8
	c-7.3-0.2-14.6,0-21.8-0.1c-1,0-2-0.1-3-0.4c-3.2-1-5.6-2.7-5.4-6.7c0.1-2.1,0-4.2,0-6.2c0-25.4,0-50.8,0-76.3c0-2.5,1.2-4,3.7-4.4
	c0.9-0.2,1.9-0.2,2.9-0.2c25.6,0,51.2,0,76.8,0c1.2,0,2.4-0.1,3.6-0.2c2-0.2,3.5-1.2,4.6-2.8c2-3,2.7-6.4,3.7-9.7
	c1.6-5.2,3-10.5,4.4-15.8c0.6-2.3,0.8-4.7,0.9-7.1c0-2.7-1.7-4.3-4.3-4.5c-1-0.1-2.1-0.1-3.1-0.1C189.1,66.2,169.5,66.2,149.9,66.2z
	 M426.5,238.6c18.5,0,36.9,0,55.4,0c1.7,0,3.4,0,5-0.1c4.8-0.2,9.3-1.6,13.2-4.5c7.7-5.9,11.2-14.2,11.5-23.4
	c0.4-17.1,0.1-34.2,0.1-51.3c0-4-0.5-8-1.9-11.8c-2.8-7.1-8.3-11-15.4-13c-5.1-1.4-10.3-1.8-15.6-1.8c-9.3-0.1-18.6,0-27.9-0.1
	c-5.8,0-11.7,0.1-17.5-0.1c-4.7-0.1-7.7-3-7.8-7.6c-0.2-4.7-0.1-9.4,0-14c0-1.9,1-3.5,2.7-4.6c1.5-1,3.2-1.4,5-1.3c21,0,42,0,63,0
	c1.3,0,2.1-0.4,2.7-1.5c2.6-4.2,3.9-8.8,5.1-13.5c1.4-5,2.6-10,3.7-15c0.4-1.9,0.8-3.9,0.8-5.9c0-2.9-1.7-4.3-4.5-4.2
	c-0.6,0-1.2,0-1.8,0c-33,0-66,0-99.1,0c-1,0-2.1,0-3.1,0.1c-3.7,0.1-7.2,0.9-10.5,2.5c-6.3,2.9-10.9,7.6-14.1,13.7
	c-1.9,3.6-3.4,7.5-3.4,11.6c-0.1,15.2-0.1,30.4,0,45.6c0,6,1.6,11.8,4.9,16.9c4.2,6.4,10.2,10.4,17.1,13.1
	c7.4,2.9,15.2,4.1,23.1,4.1c12,0,24.1,0,36.1,0c0.9,0,1.9,0,2.8,0.1c3,0.4,5.1,1.8,4.8,5.5c-0.1,1.6,0,3.3,0,4.9
	c0,3.6,0.1,7.3-0.1,10.9c-0.2,3.8-1.9,5.8-6,5.8c-13.7-0.1-27.3,0-41,0c-12.3,0-24.5,0-36.8,0c-2.2,0-3.5,0.9-4.1,2.8
	c-1.1,3.3-2.2,6.5-3.2,9.8c-2.2,6.6-4.3,13.3-6.5,19.9c-0.4,1.4-0.8,2.8-0.9,4.2c-0.2,1.7,0.6,2.4,2.3,2.5c0.3,0,0.6,0,1,0
	C385.6,238.6,406,238.6,426.5,238.6z M281.9,156.3c-0.1,0-0.3,0-0.4,0c-0.1-0.4-0.2-0.8-0.2-1.2c0-1.1,0-2.2,0-3.2
	c0-14.9,0-29.7,0-44.6c0-1.5,0-1.6,1.5-1.6c22.6,0,45.2,0,67.8,0c3.6,0,3.6,0,5.3-3.2c0.1-0.1,0.1-0.2,0.2-0.3
	c2.6-5.6,4.3-11.4,5.8-17.3c1.6-6.2,2.9-12.5,4.4-18.8c0.2-0.7-0.1-1-0.8-1c-0.3,0-0.6,0-0.8,0c-43.9,0-87.7,0-131.6,0
	c-0.6,0-1.3,0-1.9,0c-2.6,0.1-3.8,1.5-3.8,4.1c0,55,0,110.1,0,165.1c0,0.6,0,1.3,0.1,1.9c0.3,2.3,1.5,3.4,3.8,3.4
	c14.7,0,29.3,0,44,0c3.2,0,4.7-1.1,5.4-4.1c0.2-0.8,0.2-1.7,0.2-2.6c0-15.2,0-30.4,0-45.6c0-2.8,0-5.7,0-8.5c0-2.1,1-3.6,2.9-4.6
	c1.9-0.9,3.9-1.2,5.9-1.2c13.5,0,26.9,0,40.4,0c1.4,0,2.4-0.5,3.1-1.6c1.1-1.7,2.2-3.4,3.1-5.2c3.9-7.9,7-16.1,9-24.7
	c0.5-2.1,0.7-4.3,0.8-6.5c0.1-1.8-0.7-2.4-2.5-2.4c-16.7,0-33.4,0-50.1,0c-2.7,0-2.7,0-3.7,2.5c-2.2,5.7-4.2,11.3-6.4,17
	C282.9,153.5,282.4,154.9,281.9,156.3z"/>
<path class="st1" d="M53,382.2c-6,0-11.9,0.2-17.9-0.1c-5-0.2-9.5-2-12.9-5.9c-2.4-2.7-3.8-6-4.4-9.5c-0.4-2.4-0.6-4.8-0.9-7.1
	c0-0.3-0.3-0.5-0.4-0.8c0-10.1,0-20.1,0-30.2c0.1-0.4,0.3-0.8,0.4-1.2c0.4-2.2,0.5-4.5,1.2-6.6c1.5-4.7,5-7.7,9.4-9.7
	c3.1-1.5,6.5-1.9,9.9-2.1c8-0.6,16-1.1,23.9,0.1c5.9,0.9,9.4,3.7,11.4,9.9c1.2,3.6,1.2,7.5,1.3,11.3c0,0.8-0.3,1.1-1.1,1
	c-1.8,0-3.5-0.1-5.3,0c-1.1,0.1-1.5-0.4-1.5-1.4c-0.1-2.3-0.3-4.6-0.5-6.9c-0.2-3-1.5-5.3-4.5-6.2c-1.7-0.5-3.4-1-5.1-1.1
	c-7.1-0.5-14.2-0.1-21.3,0.6c-3.9,0.4-7.1,2.2-8.3,6.2c-0.7,2.5-1.3,5.2-1.3,7.8c-0.1,8.7,0,17.4,0.3,26.1c0.1,3.9,0.4,7.7,1.5,11.5
	c1.1,3.8,3.6,6.1,7.4,6.7c8.3,1.3,16.7,1,25.1,0c1.5-0.2,3-0.8,4.3-1.6c2.6-1.4,3.3-4,3.4-6.7c0.1-2.6,0.1-5.2,0-7.8
	c0-0.9,0.2-1.2,1.2-1.1c1.8,0.1,3.5,0.1,5.3,0c1-0.1,1.4,0.3,1.4,1.3c-0.1,3.6,0,7.3-0.2,10.9c-0.4,6.3-5.4,10.4-10.6,11.5
	c-3.2,0.7-6.5,0.7-9.7,1.1C53.9,381.9,53.4,382.1,53,382.2z"/>
<path class="st2" d="M149.9,66.2c19.6,0,39.1,0,58.7,0c1,0,2.1,0,3.1,0.1c2.6,0.2,4.4,1.9,4.3,4.5c0,2.4-0.3,4.8-0.9,7.1
	c-1.3,5.3-2.8,10.6-4.4,15.8c-1,3.3-1.7,6.7-3.7,9.7c-1.1,1.7-2.7,2.6-4.6,2.8c-1.2,0.1-2.4,0.2-3.6,0.2c-25.6,0-51.2,0-76.8,0
	c-1,0-1.9,0-2.9,0.2c-2.5,0.4-3.7,1.9-3.7,4.4c0,25.4,0,50.8,0,76.3c0,2.1,0.1,4.2,0,6.2c-0.2,4.1,2.2,5.8,5.4,6.7
	c0.9,0.3,2,0.4,3,0.4c7.3,0,14.6-0.1,21.8,0.1c4.7,0.1,6.7-3.3,6.8-6.8c0-4.7,0-9.4,0-14c0-0.6,0-1.2-0.1-1.8
	c-0.3-2.9-2.1-4.5-5-4.5c-4.1,0-8.2,0-12.2,0c-1.1,0-2.3-0.2-3.4-0.5c-1.9-0.5-2.7-1.9-2.3-3.8c0.6-2.3,1.2-4.5,1.9-6.8
	c1.2-4.1,2.4-8.1,3.6-12.1c1.2-4,2.5-8.1,3.7-12.1c0.2-0.8,0.5-1.6,0.8-2.4c0.7-2.2,2.2-3.3,4.5-3.3c19.3,0,38.6,0,57.9,0
	c2.1,0,3.5,1.5,3.7,3.8c0.1,0.5,0,1,0,1.6c0,32,0,64,0.1,95.9c0,4-2.8,5.9-5.9,5.9c-25.6,0-51.2,0.1-76.8,0.1c-10,0-20.1-0.1-30.1,0
	c-8.7,0.1-15.9-3.2-22.2-8.9c-4.6-4.2-7.9-9.3-9.4-15.3c-0.8-2.9-1.1-6-1.1-9c-0.1-37.5,0-75.1-0.1-112.6c0-5.8,2.4-10.5,5.9-14.8
	c6.9-8.5,15.9-12.9,27-12.9C112,66.2,131,66.2,149.9,66.2z"/>
<path class="st2" d="M426.5,238.6c-20.4,0-40.9,0-61.3,0c-0.3,0-0.6,0-1,0c-1.7-0.1-2.5-0.8-2.3-2.5c0.1-1.4,0.5-2.8,0.9-4.2
	c2.1-6.6,4.3-13.3,6.5-19.9c1.1-3.3,2.2-6.5,3.2-9.8c0.6-1.9,1.9-2.8,4.1-2.8c12.3,0,24.5,0,36.8,0c13.7,0,27.3-0.1,41,0
	c4.1,0,5.9-1.9,6-5.8c0.2-3.6,0.1-7.3,0.1-10.9c0-1.6-0.1-3.3,0-4.9c0.3-3.7-1.8-5-4.8-5.5c-0.9-0.1-1.8-0.1-2.8-0.1
	c-12,0-24.1,0-36.1,0c-8,0-15.7-1.2-23.1-4.1c-7-2.7-13-6.7-17.1-13.1c-3.3-5.1-4.9-10.9-4.9-16.9c-0.1-15.2-0.1-30.4,0-45.6
	c0-4.2,1.5-8,3.4-11.6c3.2-6.1,7.8-10.8,14.1-13.7c3.3-1.5,6.9-2.4,10.5-2.5c1,0,2.1-0.1,3.1-0.1c33,0,66,0,99.1,0
	c0.6,0,1.2,0,1.8,0c2.8,0,4.5,1.4,4.5,4.2c0,2-0.3,4-0.8,5.9c-1.1,5-2.3,10-3.7,15c-1.3,4.6-2.6,9.3-5.1,13.5
	c-0.7,1.1-1.4,1.5-2.7,1.5c-21,0-42,0-63,0c-1.8,0-3.5,0.3-5,1.3c-1.6,1.1-2.6,2.6-2.7,4.6c-0.1,4.7-0.2,9.4,0,14
	c0.2,4.7,3.2,7.6,7.8,7.6c5.8,0.1,11.7,0,17.5,0.1c9.3,0,18.6,0,27.9,0.1c5.2,0,10.5,0.5,15.6,1.8c7.1,1.9,12.6,5.9,15.4,13
	c1.5,3.8,1.9,7.7,1.9,11.8c0,17.1,0.3,34.2-0.1,51.3c-0.2,9.3-3.8,17.5-11.5,23.4c-3.8,3-8.3,4.3-13.2,4.5c-1.7,0.1-3.4,0.1-5,0.1
	C463.4,238.6,445,238.6,426.5,238.6z"/>
<path class="st2" d="M281.9,156.3c0.5-1.4,1.1-2.8,1.6-4.2c2.1-5.7,4.2-11.4,6.4-17c1-2.5,1-2.5,3.7-2.5c16.7,0,33.4,0,50.1,0
	c1.8,0,2.6,0.6,2.5,2.4c-0.1,2.2-0.3,4.4-0.8,6.5c-2,8.6-5.1,16.8-9,24.7c-0.9,1.8-2,3.5-3.1,5.2c-0.7,1.1-1.7,1.6-3.1,1.6
	c-13.5-0.1-26.9,0-40.4,0c-2.1,0-4.1,0.3-5.9,1.2c-1.9,0.9-2.9,2.4-2.9,4.6c0,2.8,0,5.7,0,8.5c0,15.2,0,30.4,0,45.6
	c0,0.9,0,1.8-0.2,2.6c-0.8,3-2.3,4.1-5.4,4.1c-14.7,0-29.3,0-44,0c-2.3,0-3.6-1.1-3.8-3.4c-0.1-0.6-0.1-1.3-0.1-1.9
	c0-55,0-110.1,0-165.1c0-2.6,1.3-3.9,3.8-4.1c0.6,0,1.3,0,1.9,0c43.9,0,87.7,0,131.6,0c0.3,0,0.6,0,0.8,0c0.6,0,0.9,0.3,0.8,1
	c-1.5,6.3-2.8,12.5-4.4,18.8c-1.5,5.9-3.2,11.8-5.8,17.3c-0.1,0.1-0.1,0.2-0.2,0.3c-1.7,3.2-1.7,3.2-5.3,3.2c-22.6,0-45.2,0-67.8,0
	c-1.5,0-1.5,0-1.5,1.6c0,14.9,0,29.7,0,44.6c0,1.1,0,2.2,0,3.2c0,0.4,0.1,0.8,0.2,1.2C281.6,156.3,281.7,156.3,281.9,156.3z"/>
<path class="st3" d="M246.6,370.5c1.2-2.8,2.3-5.6,3.5-8.4c2.1-5,4.2-10.1,6.3-15.1c1.8-4.5,3.7-8.9,5.5-13.4
	c2.1-5,4.2-10.1,6.3-15.1c1.2-2.9,2.4-5.7,3.5-8.6c0.4-1,1-1.4,2.1-1.4c3.8,0.1,7.5,0,11.3,0c1.7,0,1.7,0,1.7,1.7c0,23,0,46,0,69.1
	c0,2.5,0,2.5-2.6,2.5c-1.4,0-2.8,0.1-4.2,0.1c-1.3,0-1.6-0.3-1.6-1.6c0-21.1,0-42.1,0-63.2c0-0.4-0.1-0.8-0.2-1.2
	c-0.1,0-0.2,0-0.3,0c-0.1,0.3-0.3,0.5-0.4,0.8c-3.2,7.7-6.4,15.4-9.5,23.1c-2.7,6.6-5.4,13.2-8.1,19.8c-2.5,6-5,12.1-7.5,18.1
	c-0.4,1.1-0.9,2.1-1.3,3.2c-0.3,0.8-0.9,1-1.7,1c-1.9,0-3.7-0.1-5.6,0c-1.1,0-1.5-0.6-1.9-1.4c-1.2-2.8-2.3-5.5-3.5-8.3
	c-2.1-5-4.2-9.9-6.2-14.9c-2.1-4.9-4.1-9.8-6.2-14.8c-2.3-5.5-4.6-10.9-6.9-16.4c-1.2-2.8-2.3-5.6-3.5-8.4c-0.2-0.4-0.4-0.7-0.7-1.1
	c-0.1,0-0.2,0.1-0.3,0.1c0,0.4-0.1,0.8-0.1,1.2c0,20.6,0,41.2,0,61.9c0,1.8-0.2,1.9-2,1.8c-1.5-0.1-3,0-4.4,0
	c-1.3,0.1-1.6-0.1-1.6-1.4c0-23.5,0-47.1,0-70.6c0-1.1,0.4-1.4,1.5-1.4c3.8,0.1,7.5,0.1,11.3,0c1.1,0,1.7,0.4,2.1,1.3
	c1.4,3.4,2.8,6.7,4.1,10.1c2.1,5,4.2,10.1,6.2,15.1c2.1,5.1,4.2,10.2,6.3,15.3c2,5,4.1,9.9,6.2,14.9c0.6,1.4,1.1,2.7,1.7,4.1
	c0.2,0.4,0.5,0.9,0.7,1.3C246.4,370.5,246.5,370.5,246.6,370.5z"/>
<path class="st4" d="M524.6,382.2c-3.5,0-7,0.2-10.4,0c-3-0.2-5.9-0.8-8.6-2.3c-3-1.8-4.9-4.4-6.2-7.5c-1.6-4-1.6-8.1-1.3-12.3
	c0-0.8,0.4-1,1.2-1c1.9,0,3.8,0,5.6,0c1,0,1.3,0.4,1.3,1.3c0.1,2.2,0.2,4.5,0.4,6.7c0.4,4,2.5,7,7,7.5c3.5,0.3,7.1,0.5,10.6,0.5
	c4.4,0,8.9-0.3,13.3-0.7c2.5-0.2,4.9-1.2,6-3.8c0.4-1,0.8-2,0.9-3.1c0.4-3.9,0.7-7.7,0.2-11.6c-0.5-3.7-2.2-5.9-5.9-6.4
	c-4.8-0.6-9.7-0.9-14.6-1.2c-3.5-0.3-7.1-0.4-10.6-0.7c-3-0.3-6-1.2-8.6-2.8c-3.5-2.2-5.4-5.6-6.1-9.5c-1-5.5-0.8-10.9,0.6-16.3
	c1.3-5.1,4.9-7.9,9.7-9.3c5.8-1.7,11.9-1.5,17.9-1.4c4.2,0,8.4,0.3,12.5,0.9c4.6,0.7,8.4,2.9,10.5,7.4c1.4,2.9,1.8,6,1.7,9.2
	c0,3.5,0.4,2.9-2.9,2.9c-1.4,0-2.7,0-4.1,0c-0.8,0-1.1-0.3-1.2-1.1c-0.2-2-0.3-4.1-0.8-6.1c-0.9-3.9-3.9-5.5-7.6-5.9
	c-7.3-0.8-14.5-0.6-21.7,0.7c-3.6,0.6-5.7,2.9-6.5,6.5c-0.8,3.7-0.7,7.4,0.1,11.1c0.7,3.3,3.2,5.6,6.8,6c5.9,0.5,11.9,0.8,17.8,1.3
	c3.8,0.3,7.7,0.7,11.4,1.4c5,1,8,4.5,9.1,9.3c1.5,6.4,1.2,12.9-0.1,19.3c-1.1,5.4-4.7,8.5-9.9,9.9
	C536.5,382.5,530.5,382.2,524.6,382.2z"/>
<path class="st5" d="M410.2,308.5c1.6,0,3.2,0,4.8,0c0.7,0,1.1,0.3,1.4,1c1.9,5.2,3.9,10.5,5.9,15.7c2.1,5.5,4.2,11,6.2,16.6
	c1.9,5,3.7,9.9,5.5,14.9c1.9,5,3.7,9.9,5.6,14.9c1.1,3,2.3,6,3.4,9.1c0.3,0.9,0,1.4-0.9,1.4c-2,0-4.1,0-6.1,0
	c-0.7,0-1.2-0.3-1.5-1.1c-1.6-4.5-3.4-9-5-13.4c-0.3-0.8-0.7-1-1.5-1c-11.6,0-23.3,0-34.9,0c-0.9,0-1.2,0.5-1.5,1.2
	c-1,2.6-1.9,5.2-2.8,7.7c-0.7,1.9-1.3,3.9-2.1,5.7c-0.2,0.5-1,0.9-1.6,1c-2.1,0.1-4.2,0.1-6.2,0c-0.9,0-1.2-0.4-0.8-1.3
	c2.1-5.8,4.2-11.5,6.3-17.3c1.9-5.1,3.7-10.2,5.6-15.3c1.9-5.1,3.7-10.2,5.5-15.3c1.6-4.5,3.3-9,4.9-13.5c1.2-3.2,2.4-6.4,3.5-9.7
	c0.3-0.8,0.7-1.2,1.6-1.2C407,308.5,408.6,308.5,410.2,308.5z M410.5,359.7C410.5,359.7,410.5,359.7,410.5,359.7c1.9,0,3.8,0,5.8,0
	c2.9,0,5.8,0,8.7,0c1.5,0,1.6-0.1,1.1-1.6c0-0.1-0.1-0.2-0.1-0.3c-2.3-6.2-4.6-12.5-6.9-18.7c-2.7-7.3-5.3-14.7-8-22
	c-0.1-0.3-0.4-0.4-0.6-0.7c-0.2,0.2-0.5,0.4-0.6,0.7c-2.4,6.5-4.8,13.1-7.2,19.6c-2.6,7.1-5.2,14.3-7.8,21.4
	c-0.5,1.3-0.3,1.6,1.1,1.6C400.8,359.7,405.6,359.7,410.5,359.7z"/>
<path class="st4" d="M317.5,343.9c0-4.7,0-9.4,0-14c0-3.4,0.5-6.8,1.7-10.1c1.5-3.7,4.2-6.2,7.6-8.1c2.8-1.6,5.9-2.4,9.1-2.7
	c7.5-0.8,15.1-0.9,22.6-0.5c3.1,0.1,6.2,0.7,9,2.3c4,2.2,6,6,6.8,10.2c0.6,3.1,0.5,6.3,0.8,9.4c0.1,0.9-0.3,1.2-1.2,1.2
	c-1.9,0-3.8,0-5.6,0c-1,0-1.4-0.4-1.5-1.3c-0.1-1.8-0.1-3.5-0.3-5.3c-0.2-1.7-0.3-3.4-0.9-4.9c-1-2.5-3.4-3.4-5.9-3.8
	c-5.8-1-11.7-0.6-17.6-0.3c-2.9,0.2-5.7,0.4-8.6,0.9c-3.3,0.6-5.4,2.8-6.3,6c-1.1,3.5-1.3,7.2-1.2,10.8c0.2,9.1,0.3,18.1,0.7,27.2
	c0.1,2.7,0.8,5.5,1.7,8.2c1.1,3.4,4,4.9,7.3,5.4c7.9,1.1,15.9,0.8,23.8-0.1c1.5-0.2,3-0.7,4.4-1.4c1.8-0.8,2.8-2.3,3.3-4.2
	c0.9-3.3,0.6-6.7,0.5-10.1c0-1.7,0-1.7,1.6-1.7c1.8,0,3.5,0,5.3,0c0.9,0,1.2,0.3,1.3,1.2c0.4,4.1,0.4,8.2-0.3,12.3
	c-0.7,4.3-3.4,7.2-7.1,9.3c-2,1.1-4.2,1.7-6.5,2c-9,1.2-18,0.9-26.9,0.4c-7-0.4-12.4-4.1-15.2-10.9c-1.7-4.3-2.1-8.8-2.2-13.3
	c-0.2-4.6,0-9.3,0-13.9C317.7,343.9,317.6,343.9,317.5,343.9z"/>
<path class="st6" d="M150,345.1c0-11.6,0-23.3,0-34.9c0-1.7,0-1.7,1.7-1.7c14.6,0,29.1,0,43.7,0c1.6,0,1.7,0,1.7,1.7
	c0,1.5,0,3,0,4.6c0,1-0.3,1.3-1.3,1.3c-12,0-23.9,0-35.9,0c-1.9,0-1.9,0-1.9,1.9c0,7,0,14.1,0,21.1c0,1.7,0.1,1.7,1.8,1.7
	c11.4,0,22.7,0,34.1,0c1.6,0,1.7,0.1,1.7,1.7c0,1.3-0.1,2.6,0,3.8c0.1,1-0.4,1.3-1.3,1.3c-3,0-6,0-9,0c-8.5,0-17,0-25.5,0
	c-1.5,0-1.6,0.1-1.6,1.5c0,8,0,15.9,0,23.9c0,1.6,0.1,1.7,1.7,1.7c11.9,0,23.7,0,35.6,0c1.6,0,1.7,0,1.7,1.7c0,1.4,0,2.9,0,4.3
	c0,0.9-0.4,1.3-1.2,1.3c-0.6,0-1.1,0-1.7,0c-14.2,0-28.4,0-42.6,0c-1.4,0-1.6-0.2-1.6-1.6C150,368.6,150,356.9,150,345.1z"/>
<path class="st7" d="M449.7,345c0-11.6,0-23.3,0-34.9c0-1.7,0-1.6,1.7-1.6c1.9,0,3.8,0,5.6,0c1,0,1.4,0.3,1.4,1.4c0,2.7,0,5.4,0,8
	c0,18.2,0,36.4,0,54.6c0,1.6,0.1,1.7,1.7,1.7c11.4,0,22.7,0,34.1,0c1.1,0,1.6,0.3,1.5,1.5c-0.1,1.6-0.1,3.2,0,4.8
	c0,1.1-0.4,1.6-1.5,1.6c-13.8,0-27.5,0-41.3,0c-0.4,0-0.7,0-1.1,0c-2.1,0-2.1,0-2.1-2.1C449.7,368.2,449.7,356.6,449.7,345z"/>
<path class="st6" d="M299.3,345.2c0-11.7,0-23.3,0-35c0-1.6,0.1-1.6,1.6-1.6c1.9,0,3.8,0,5.6,0c1,0,1.3,0.4,1.2,1.3
	c0,0.3,0,0.6,0,0.8c0,23.1,0,46.3,0,69.4c0,2,0,2-2,2c-1.6,0-3.3,0-4.9,0c-1.1,0-1.6-0.4-1.5-1.6
	C299.3,368.7,299.3,356.9,299.3,345.2z"/>
<path class="st8" d="M596.9,309.8c0.4,7.1-6.3,12.4-12.3,12.3c-6.7-0.1-12.2-5.6-12.2-12.3c0-6.7,5.5-12.2,12.3-12.3
	C590.8,297.4,597.2,302.8,596.9,309.8z M574.5,309.8c0,6.1,4.3,10.5,10.2,10.5c5.8,0,10.2-4.5,10.2-10.5c0-5.9-4.5-10.5-10.2-10.5
	C578.9,299.2,574.5,303.7,574.5,309.8z"/>
<path class="st9" d="M140.1,345.2c0,11.5,0,23,0,34.5c0,1.8,0,1.8-1.7,1.8c-1.6,0-3.1-0.1-4.7,0c-1.2,0.1-1.4-0.5-1.4-1.5
	c0-10.1,0-20.2,0-30.3c0-1.8-0.1-1.9-1.9-1.9c-13.2,0-26.5,0-39.7,0c-1.6,0-1.7,0.1-1.7,1.7c0,10.2,0,20.3,0,30.5
	c0,1.6,0,1.6-1.6,1.6c-1.6,0-3.2-0.1-4.8,0c-1.1,0.1-1.4-0.4-1.4-1.4c0.1-1.7,0-3.4,0-5.2c0-21.4,0-42.8,0-64.3c0-1.9,0-1.9,1.9-1.9
	c1.5,0,3,0.1,4.4,0c1.1-0.1,1.4,0.4,1.3,1.4c0,9.6,0,19.3,0,28.9c0,0.4-0.1,0.9,0,1.2c0.2,0.4,0.6,0.6,0.9,0.9c0.2,0.1,0.5,0,0.7,0
	c13.3,0,26.5,0,39.8,0c1.7,0,1.8-0.1,1.8-1.8c0-9.6,0-19.2,0-28.8c0-1.7,0-1.7,1.7-1.7c1.6,0,3.3,0,4.9,0c0.8,0,1.1,0.3,1.1,1
	c0,0.8,0,1.7,0,2.5C140.1,323.3,140.1,334.2,140.1,345.2z"/>
<path class="st10" d="M590.6,316.4c-1.1,0.5-1.8,0.3-2.3-0.6c-1-1.6-2-3.2-3-4.8c-0.4-0.7-2.5-1.1-3.1-0.6c-0.2,0.2-0.3,0.6-0.3,1
	c0,1.4,0,2.7,0,4.1c0,0.6,0,1.2-0.8,1.2c-0.8,0-1-0.5-1-1.2c0-3.8,0-7.6,0-11.4c0-0.8,0.3-1.2,1.1-1.2c2.2,0,4.4,0,6.6,0.2
	c2,0.1,3.1,1.3,3.2,3.1c0.1,2.1-0.9,3.7-2.9,4.1c-1.2,0.2-1.2,0.6-0.5,1.4c0.9,1.2,1.7,2.5,2.5,3.8
	C590.3,315.7,590.4,316,590.6,316.4z M584.6,309.1c1.1-0.2,2.1-0.2,3.1-0.5c1.2-0.4,1.5-1.4,1.3-2.5c-0.2-1.1-0.9-1.6-1.9-1.7
	c-1.1-0.1-2.2-0.1-3.3-0.1c-1.9,0-1.9,0-1.9,2C581.9,308.9,581.9,308.9,584.6,309.1z"/>
</svg>
